PathFileType	4	(X/Y/Z)	C:/Users/beibeiliu/ov580/test_trc/User2\sequence.24_training_dense_right.trc
DataRate	CameraRate	NumFrames	NumMarkers	Units	OrigDataRate	OrigDataStartFrame	OrigNumFrames
120	120	8	19	mm	120	28	81
Frame#	Time	ThumbCMC			ThumbMCP			ThumbIP			ThumbTip			IndexMCP			IndexPIP			IndexTip			MiddleMCP			MiddlePIP			MiddleTip			RingMCP			RingPIP			RingTip			PinkyMCP			PinkyPIP			PinkyTip			BackHand1			BackHand2			BackHand3	
		X0	Y0	Z0	X1	Y1	Z1	X2	Y2	Z2	X3	Y3	Z3	X4	Y4	Z4	X5	Y5	Z5	X6	Y6	Z6	X7	Y7	Z7	X8	Y8	Z8	X9	Y9	Z9	X10	Y10	Z10	X11	Y11	Z11	X12	Y12	Z12	X13	Y13	Z13	X14	Y14	Z14	X15	Y15	Z15	X16	Y16	Z16	X17	Y17	Z17	X18	Y18	Z18	
27	0.225	137.414	98.1484	-5.42198	127.271	123.233	-24.9789	110.775	141.376	-55.2701	93.3577	148.878	-71.443	101.531	86.4859	-84.726	76.5919	102.465	-94.6474	55.953	123.612	-72.2126	86.7576	70.4872	-87.0504	54.1761	90.0388	-92.1857	41.1196	114.731	-62.2307	70.6326	53.3802	-76.7953	46.7758	77.3604	-83.6714	34.4557	98.9272	-56.4975	58.9684	35.9453	-58.2994	35.7636	42.3392	-71.4914	17.1687	60.0811	-88.2193	107.762	34.6198	-32.8698	125.042	28.5614	0.553615	137.554	57.9949	-23.6305	
28	0.233333	139.583	84.9419	-14.7554	134.414	108.247	-37.8528	124.002	125.95	-61.9244	109.17	136.573	-83.4294	102.498	78.1923	-92.2962	78.6305	97.21	-96.0244	69.7673	115.518	-62.4115	83.6677	62.3502	-90.4988	58.4658	87.4434	-89.4488	57.6512	105.387	-51.5779	65.2624	50.515	-80.5678	44.8287	74.3075	-78.2624	51.5514	92.0706	-48.1308	55.7378	30.5363	-60.6375	34.3488	38.5951	-76.5978	15.4838	47.6855	-89.0246	106.705	25.0839	-33.7455	119.159	18.1746	-1.52271	137.905	47.3712	-28.7702	
29	0.241667	141.398	65.6351	-21.2972	139.248	88.5013	-44.3712	134.535	108.448	-75.5615	119.552	115.938	-97.3343	95.2885	61.8358	-95.9107	76.0825	83.6136	-94.931	77.1857	96.0355	-61.3176	76.0166	49.2842	-92.6417	56.7607	77.4738	-80.8345	74.8775	88.0668	-45.8464	60.3446	39.2604	-79.2482	46.845	68.7905	-71.1761	67.0943	75.5589	-41.48	52.5	18.3613	-62.4541	28.8494	27.0483	-78.926	11.5668	34.4827	-91.0684	100.877	9.41852	-39.4943	114.876	2.16782	-6.62529	136.87	30.2565	-31.735	
30	0.25	143.534	49.4272	-32.8453	143.298	69.3553	-56.0965	139.53	87.3492	-82.8203	130.426	98.7528	-103.232	95.8994	48.8196	-100.698	72.7939	69.9408	-92.498	80.4897	79.0248	-60.7285	72.4906	36.9144	-92.8142	57.5258	66.6323	-77.0928	80.4819	66.7501	-44.7259	55.1071	29.6211	-81.139	48.6068	58.2128	-69.1382	72.5902	54.1787	-38.6592	49.1646	6.41811	-66.5083	28.1404	16.84	-81.7387	10.0398	23.4063	-93.2858	97.2909	-5.59387	-42.6459	113.249	-9.59289	-14.2154	134.567	12.3196	-39.0809	
31	0.258333	143.069	41.8576	-34.9665	142.55	62.1031	-61.9875	140.534	79.2207	-87.6656	135.209	94.1045	-109.588	91.7902	38.5976	-100.463	71.1197	65.4964	-92.583	81.6449	68.9569	-58.3465	68.5953	30.9054	-94.2541	55.5326	58.5487	-75.5763	85.332	58.3135	-45.0154	54.0485	25.3987	-81.7703	47.4237	50.5553	-65.1768	73.8773	48.5929	-43.0075	46.1458	-1.56856	-66.0795	26.9413	9.99427	-80.5008	8.31604	20.0518	-95.308	97.767	-11.2781	-46.9317	117.266	-17.2139	-16.7188	130.982	4.02921	-42.5525	
32	0.266667	146.351	48.168	-30.9392	144.153	68.8221	-59.0876	142.959	87.2696	-86.8508	136.402	101.66	-105.659	94.0185	45.3893	-99.7754	72.9946	74.1264	-90.3853	82.53	75.3322	-59.4275	73.1552	35.3599	-92.2458	58.9112	65.944	-75.0302	83.0574	59.0292	-42.7881	55.8103	28.1218	-80.9271	47.7236	54.7927	-66.4908	73.8152	48.0394	-39.7309	49.4075	3.48232	-66.4369	25.2364	14.0474	-77.3737	6.71443	30.1536	-93.1537	98.4031	-9.68005	-45.4787	113.041	-14.2704	-16.8052	130.878	9.23542	-44.7195	
33	0.275	145.542	58.3114	-26.3393	147.314	80.6682	-47.3002	145.266	101.461	-74.6876	141.335	117.043	-96.8686	96.4563	63.2215	-98.5019	74.4095	84.1044	-88.9188	81.6083	83.1811	-53.7049	74.6953	45.5184	-88.1496	58.7128	75.2857	-72.1203	82.6681	71.4837	-40.687	55.8364	40.1767	-79.615	47.3894	63.5062	-62.9698	70.5483	57.9426	-37.1116	49.9915	13.9613	-67.0629	28.4831	25.0003	-77.0126	6.58614	38.8669	-90.2164	103.606	0.796794	-45.9003	118.188	-3.57715	-18.7772	137.724	23.6729	-39.2124	
34	0.283333	146.309	67.595	-23.139	150.269	91.7431	-44.4487	146.258	110.594	-66.2065	145.974	130.579	-87.6181	96.7268	71.5261	-90.6445	75.932	98.0171	-80.1836	84.0402	95.8433	-47.8644	78.2218	63.7862	-87.4464	61.1033	85.9343	-67.665	86.9216	79.0669	-34.708	62.0363	51.313	-76.9435	49.5335	72.5245	-60.5019	78.1106	69.3159	-33.0476	53.9617	24.4884	-65.0709	31.1236	34.7726	-74.9154	13.518	46.3056	-88.7043	105.081	12.0084	-41.5001	122.291	6.01981	-13.7954	138.591	34.1124	-38.5789	
